<mxfile host="app.diagrams.net" agent="Mozilla/5.0 (X11; Linux x86_64) AppleWebKit/537.36 (KHTML, like Gecko) Chrome/124.0.0.0 Safari/537.36" version="24.7.10">
  <diagram id="bthfR-QZZWKckr_qiz-K" name="ページ1">
    <mxGraphModel dx="433" dy="-74" grid="1" gridSize="10" guides="1" tooltips="1" connect="1" arrows="1" fold="1" page="0" pageScale="1" pageWidth="827" pageHeight="1169" math="0" shadow="0">
      <root>
        <mxCell id="0" />
        <mxCell id="1" parent="0" />
        <mxCell id="s_mJhzwTgfERM5an23nG-2" style="edgeStyle=orthogonalEdgeStyle;rounded=0;orthogonalLoop=1;jettySize=auto;html=1;exitX=1;exitY=0.5;exitDx=0;exitDy=0;" edge="1" parent="1" source="5VRAvVUR2-phpQkzf3P--2" target="s_mJhzwTgfERM5an23nG-1">
          <mxGeometry relative="1" as="geometry" />
        </mxCell>
        <mxCell id="5VRAvVUR2-phpQkzf3P--2" value="s_temperatureSensor" style="text;html=1;align=center;verticalAlign=middle;whiteSpace=wrap;rounded=0;fontSize=12;fontFamily=Helvetica;fontColor=default;labelBackgroundColor=default;" parent="1" vertex="1">
          <mxGeometry x="115" y="460" width="45" height="20" as="geometry" />
        </mxCell>
        <mxCell id="5VRAvVUR2-phpQkzf3P--3" value="s_tick" style="text;html=1;align=center;verticalAlign=middle;whiteSpace=wrap;rounded=0;fontSize=12;fontFamily=Helvetica;fontColor=default;labelBackgroundColor=default;" parent="1" vertex="1">
          <mxGeometry x="397.5" y="410" width="45" height="20" as="geometry" />
        </mxCell>
        <mxCell id="s_mJhzwTgfERM5an23nG-1" value="filter&lt;div&gt;&amp;lt; 99&lt;/div&gt;" style="rhombus;whiteSpace=wrap;html=1;fontFamily=Helvetica;fontSize=12;fontColor=default;labelBackgroundColor=default;" vertex="1" parent="1">
          <mxGeometry x="240" y="440" width="80" height="60" as="geometry" />
        </mxCell>
        <mxCell id="s_mJhzwTgfERM5an23nG-3" value="map to Unit" style="shape=offPageConnector;whiteSpace=wrap;html=1;fontFamily=Helvetica;fontSize=12;fontColor=default;labelBackgroundColor=default;direction=north;" vertex="1" parent="1">
          <mxGeometry x="380" y="450" width="80" height="40" as="geometry" />
        </mxCell>
        <mxCell id="s_mJhzwTgfERM5an23nG-4" value="" style="endArrow=classic;html=1;rounded=0;" edge="1" parent="1" source="s_mJhzwTgfERM5an23nG-1" target="s_mJhzwTgfERM5an23nG-3">
          <mxGeometry width="50" height="50" relative="1" as="geometry">
            <mxPoint x="330" y="540" as="sourcePoint" />
            <mxPoint x="380" y="490" as="targetPoint" />
          </mxGeometry>
        </mxCell>
        <mxCell id="s_mJhzwTgfERM5an23nG-5" value="Time.ms_passed&lt;div&gt;10000&lt;/div&gt;" style="shape=process;whiteSpace=wrap;html=1;backgroundOutline=1;fontFamily=Helvetica;fontSize=12;fontColor=default;labelBackgroundColor=default;" vertex="1" parent="1">
          <mxGeometry x="570" y="420" width="120" height="40" as="geometry" />
        </mxCell>
        <mxCell id="s_mJhzwTgfERM5an23nG-6" value="" style="endArrow=classic;html=1;rounded=0;" edge="1" parent="1" source="s_mJhzwTgfERM5an23nG-3" target="s_mJhzwTgfERM5an23nG-5">
          <mxGeometry width="50" height="50" relative="1" as="geometry">
            <mxPoint x="470" y="520" as="sourcePoint" />
            <mxPoint x="520" y="470" as="targetPoint" />
          </mxGeometry>
        </mxCell>
        <mxCell id="s_mJhzwTgfERM5an23nG-10" value="s_forceReset" style="edgeLabel;html=1;align=center;verticalAlign=middle;resizable=0;points=[];" vertex="1" connectable="0" parent="s_mJhzwTgfERM5an23nG-6">
          <mxGeometry x="-0.0239" y="1" relative="1" as="geometry">
            <mxPoint as="offset" />
          </mxGeometry>
        </mxCell>
        <mxCell id="s_mJhzwTgfERM5an23nG-7" value="" style="endArrow=classic;html=1;rounded=0;" edge="1" parent="1" source="5VRAvVUR2-phpQkzf3P--3" target="s_mJhzwTgfERM5an23nG-5">
          <mxGeometry width="50" height="50" relative="1" as="geometry">
            <mxPoint x="470" y="520" as="sourcePoint" />
            <mxPoint x="520" y="470" as="targetPoint" />
          </mxGeometry>
        </mxCell>
        <mxCell id="s_mJhzwTgfERM5an23nG-11" value="s_tick" style="edgeLabel;html=1;align=center;verticalAlign=middle;resizable=0;points=[];" vertex="1" connectable="0" parent="s_mJhzwTgfERM5an23nG-7">
          <mxGeometry x="-0.0196" y="1" relative="1" as="geometry">
            <mxPoint as="offset" />
          </mxGeometry>
        </mxCell>
        <mxCell id="s_mJhzwTgfERM5an23nG-8" value="" style="endArrow=classic;html=1;rounded=0;entryX=1;entryY=1;entryDx=0;entryDy=0;entryPerimeter=0;" edge="1" parent="1" source="s_mJhzwTgfERM5an23nG-5" target="s_mJhzwTgfERM5an23nG-9">
          <mxGeometry width="50" height="50" relative="1" as="geometry">
            <mxPoint x="610" y="510" as="sourcePoint" />
            <mxPoint x="800" y="440" as="targetPoint" />
          </mxGeometry>
        </mxCell>
        <mxCell id="s_mJhzwTgfERM5an23nG-9" value="turnOnKeepWarm" style="text;html=1;align=center;verticalAlign=middle;resizable=0;points=[];autosize=1;strokeColor=none;fillColor=none;" vertex="1" parent="1">
          <mxGeometry x="720" y="410" width="120" height="30" as="geometry" />
        </mxCell>
        <mxCell id="s_mJhzwTgfERM5an23nG-12" value="テストのため10秒にしているが&lt;div&gt;仕様は3分待たないといけない&lt;/div&gt;" style="text;html=1;align=center;verticalAlign=middle;resizable=0;points=[];autosize=1;strokeColor=none;fillColor=none;" vertex="1" parent="1">
          <mxGeometry x="535" y="460" width="190" height="40" as="geometry" />
        </mxCell>
      </root>
    </mxGraphModel>
  </diagram>
</mxfile>
